<svg width="124" height="125" viewBox="0 0 124 125" fill="none" xmlns="http://www.w3.org/2000/svg">
<path d="M3.67043 40.7882C37.1364 13.5279 69.1547 37.7475 71.2109 67.5621C72.0083 79.1237 93.1159 80.9485 93.1159 67.5621C93.1159 12.8 26.1839 -4.23725 3.67043 40.7882Z" fill="#12B8CE"/>
<path d="M29.2263 9.14915C74.8617 1.17583 98.6111 29.3098 100.418 67.5621C100.935 78.5152 123.54 79.1237 123.54 67.5621C125.422 25.3953 85.8142 -19.449 29.2263 9.14915Z" fill="#12B8CE"/>
<path d="M42.6127 67.5621C42.6127 78.5152 62.6923 79.1237 62.6923 67.5621C62.6923 54.7848 51.7398 37.139 29.8348 36.1342C15.8403 36.1342 5.93532 44.9063 1.8454 56.6102C-4.75361 75.4941 6.63434 100.939 31.0517 99.8117H108.936L119.889 82.9492H34.7025C22.5333 82.9492 19.0509 69.9966 22.5333 63.3034C26.8312 55.0426 42.6127 55.1523 42.6127 67.5621Z" fill="#12B8CE"/>
<path d="M17.057 105.896H60.8671H104.677C104.677 105.896 94.3329 124.759 60.8671 124.759C27.4013 124.759 17.057 105.896 17.057 105.896Z" fill="#12B8CE"/>
</svg>