<svg width="161" height="70" viewBox="0 0 161 70" fill="none" xmlns="http://www.w3.org/2000/svg">
<path d="M1.99072 23.2321C20.1307 8.45581 37.486 21.5839 38.6006 37.7446C39.0328 44.0115 50.474 45.0007 50.474 37.7446C50.474 8.06126 14.194 -1.17368 1.99072 23.2321Z" fill="#4D82FF"/>
<path d="M15.8431 6.08232C40.5795 1.76044 53.4526 17.0103 54.4318 37.7446C54.7122 43.6817 66.9649 44.0115 66.9649 37.7446C67.9855 14.8884 46.5162 -9.41908 15.8431 6.08232Z" fill="#4D82FF"/>
<path d="M23.0991 37.7446C23.0991 43.6817 33.9831 44.0115 33.9831 37.7446C33.9831 30.8188 28.0464 21.254 16.1729 20.7094C8.5873 20.7094 3.21839 25.4642 1.00147 31.8082C-2.57547 42.0442 3.59729 55.8362 16.8325 55.2253H59.0494L64.9861 46.0851H18.8115C12.2152 46.0851 10.3276 39.0642 12.2152 35.4362C14.5449 30.9585 23.0991 31.018 23.0991 37.7446Z" fill="#4D82FF"/>
<path d="M9.24683 58.5235H32.9937H56.7407C56.7407 58.5235 51.1336 68.7479 32.9937 68.7479C14.8538 68.7479 9.24683 58.5235 9.24683 58.5235Z" fill="#4D82FF"/>
<path d="M86.6244 31.1152L94.6926 8.6027H98.198L106.266 31.1152H103.093L101.25 25.8271H91.6406L89.7973 31.1152H86.6244ZM92.5774 23.1074H100.313L96.0222 10.7482H96.8684L92.5774 23.1074ZM120.6 37.1589V27.6401L121.053 28.1236C120.489 29.1913 119.663 30.0173 118.575 30.6015C117.508 31.1857 116.309 31.4779 114.979 31.4779C113.448 31.4779 112.068 31.1052 110.84 30.3598C109.631 29.6144 108.674 28.5971 107.969 27.3077C107.264 26.0184 106.911 24.578 106.911 22.9865C106.911 21.3548 107.264 19.9043 107.969 18.6351C108.674 17.3458 109.631 16.3285 110.84 15.5831C112.068 14.8377 113.448 14.465 114.979 14.465C116.329 14.465 117.528 14.7571 118.575 15.3413C119.623 15.9054 120.449 16.6709 121.053 17.6379L120.691 18.3329V14.8276H123.441V37.1589H120.6ZM115.221 28.7582C116.249 28.7582 117.165 28.5064 117.971 28.0028C118.777 27.4991 119.411 26.8142 119.875 25.9479C120.358 25.0615 120.6 24.0744 120.6 22.9865C120.6 21.8785 120.358 20.8914 119.875 20.0252C119.411 19.1388 118.777 18.4437 117.971 17.9401C117.165 17.4365 116.249 17.1847 115.221 17.1847C114.214 17.1847 113.297 17.4465 112.471 17.9703C111.665 18.474 111.031 19.1589 110.568 20.0252C110.104 20.8713 109.873 21.8584 109.873 22.9865C109.873 24.0744 110.104 25.0615 110.568 25.9479C111.031 26.8142 111.665 27.4991 112.471 28.0028C113.277 28.5064 114.194 28.7582 115.221 28.7582ZM132.958 31.4779C131.789 31.4779 130.732 31.2059 129.785 30.662C128.858 30.118 128.133 29.3626 127.609 28.3956C127.105 27.4085 126.854 26.2803 126.854 25.0112V14.8276H129.664V24.709C129.664 25.5148 129.825 26.2199 130.147 26.8243C130.49 27.4286 130.953 27.902 131.537 28.2445C132.142 28.587 132.827 28.7582 133.592 28.7582C134.358 28.7582 135.033 28.587 135.617 28.2445C136.221 27.902 136.684 27.4085 137.007 26.7638C137.349 26.1192 137.521 25.3536 137.521 24.4672V14.8276H140.361V31.1152H137.611V27.9423L138.064 28.2143C137.682 29.2417 137.027 30.0475 136.1 30.6317C135.194 31.1958 134.146 31.4779 132.958 31.4779ZM148.885 31.4779C147.817 31.4779 146.87 31.2865 146.044 30.9037C145.239 30.5008 144.604 29.9569 144.141 29.2719C143.677 28.5668 143.446 27.761 143.446 26.8545C143.446 25.9882 143.627 25.2126 143.99 24.5277C144.372 23.8226 144.957 23.2283 145.742 22.7448C146.548 22.2613 147.555 21.9188 148.764 21.7174L154.808 20.7202V23.0772L149.399 23.9837C148.351 24.1651 147.586 24.4975 147.102 24.9809C146.639 25.4644 146.407 26.0587 146.407 26.7638C146.407 27.4286 146.669 27.9826 147.193 28.4258C147.737 28.869 148.412 29.0906 149.217 29.0906C150.245 29.0906 151.131 28.8791 151.877 28.456C152.642 28.0128 153.236 27.4185 153.659 26.6732C154.103 25.9278 154.324 25.1018 154.324 24.1953V20.0554C154.324 19.169 153.992 18.4538 153.327 17.9099C152.682 17.3458 151.826 17.0638 150.758 17.0638C149.832 17.0638 149.006 17.3055 148.281 17.789C147.575 18.2524 147.052 18.8769 146.709 19.6625L144.262 18.3934C144.564 17.648 145.047 16.9832 145.712 16.399C146.377 15.7946 147.152 15.3212 148.039 14.9787C148.925 14.6363 149.852 14.465 150.819 14.465C152.068 14.465 153.166 14.7068 154.113 15.1903C155.06 15.6536 155.795 16.3083 156.319 17.1544C156.863 17.9804 157.134 18.9474 157.134 20.0554V31.1152H154.385V28.033L154.898 28.2143C154.556 28.8589 154.093 29.423 153.508 29.9065C152.924 30.39 152.239 30.7728 151.453 31.0548C150.668 31.3368 149.812 31.4779 148.885 31.4779Z" fill="#5E5E6A"/>
<path d="M88.8001 62.825V40.3124H103.063V43.032H91.7615V50.3146H102.005V53.0343H91.7615V62.825H88.8001ZM109.429 63.1876C108.361 63.1876 107.414 62.9962 106.588 62.6134C105.783 62.2105 105.148 61.6666 104.685 60.9816C104.221 60.2766 103.99 59.4707 103.99 58.5642C103.99 57.6979 104.171 56.9223 104.534 56.2374C104.916 55.5323 105.501 54.938 106.286 54.4545C107.092 53.971 108.099 53.6286 109.308 53.4271L115.352 52.4299V54.7869L109.943 55.6935C108.895 55.8748 108.13 56.2072 107.646 56.6907C107.183 57.1742 106.951 57.7684 106.951 58.4735C106.951 59.1383 107.213 59.6923 107.737 60.1355C108.281 60.5787 108.956 60.8003 109.761 60.8003C110.789 60.8003 111.675 60.5888 112.421 60.1658C113.186 59.7226 113.78 59.1283 114.203 58.3829C114.647 57.6375 114.868 56.8115 114.868 55.905V51.7651C114.868 50.8787 114.536 50.1635 113.871 49.6196C113.226 49.0555 112.37 48.7735 111.302 48.7735C110.376 48.7735 109.55 49.0152 108.825 49.4987C108.12 49.9621 107.596 50.5866 107.253 51.3723L104.806 50.1031C105.108 49.3577 105.591 48.6929 106.256 48.1087C106.921 47.5043 107.696 47.0309 108.583 46.6884C109.469 46.346 110.396 46.1747 111.363 46.1747C112.612 46.1747 113.71 46.4165 114.657 46.9C115.604 47.3633 116.339 48.018 116.863 48.8642C117.407 49.6901 117.679 50.6571 117.679 51.7651V62.825H114.929V59.7427L115.442 59.924C115.1 60.5687 114.637 61.1327 114.052 61.6162C113.468 62.0997 112.783 62.4825 111.998 62.7645C111.212 63.0466 110.356 63.1876 109.429 63.1876ZM121.431 62.825V46.5374H124.181V49.529L123.879 49.1059C124.262 48.1792 124.846 47.4943 125.632 47.0511C126.417 46.5877 127.374 46.356 128.503 46.356H129.5V49.0152H128.079C126.931 49.0152 126.004 49.3779 125.299 50.1031C124.594 50.8082 124.242 51.8155 124.242 53.1249V62.825H121.431ZM131.392 62.825V46.5374H134.142V49.8614L133.749 49.3476C134.152 48.3202 134.796 47.5346 135.683 46.9906C136.569 46.4467 137.566 46.1747 138.674 46.1747C139.943 46.1747 141.082 46.5273 142.089 47.2324C143.116 47.9375 143.821 48.8642 144.204 50.0124L143.418 50.0427C143.842 48.7735 144.557 47.8166 145.564 47.1719C146.571 46.5071 147.689 46.1747 148.918 46.1747C150.046 46.1747 151.064 46.4366 151.97 46.9604C152.897 47.4842 153.632 48.2094 154.176 49.1361C154.72 50.0628 154.992 51.1104 154.992 52.2788V62.825H152.152V53.1854C152.152 52.2788 151.99 51.5133 151.668 50.8888C151.346 50.2643 150.903 49.7808 150.338 49.4383C149.795 49.0757 149.15 48.8944 148.404 48.8944C147.679 48.8944 147.025 49.0757 146.44 49.4383C145.876 49.7808 145.423 50.2743 145.08 50.919C144.758 51.5435 144.597 52.299 144.597 53.1854V62.825H141.756V53.1854C141.756 52.2788 141.595 51.5133 141.273 50.8888C140.951 50.2643 140.507 49.7808 139.943 49.4383C139.399 49.0757 138.755 48.8944 138.009 48.8944C137.284 48.8944 136.629 49.0757 136.045 49.4383C135.481 49.7808 135.028 50.2743 134.685 50.919C134.363 51.5435 134.202 52.299 134.202 53.1854V62.825H131.392Z" fill="#5E5E6A"/>
</svg>